# xmcd
#
# Track frame offsets: 
#        150
#        13257
#        29553
#        49261
#        69607
#        83377
#        104417
#        114077
#        125496
#        134868
#        147207
#        158871
#        175804
#        186098
#        198503
#
# Disc length: 2776 seconds
#
# Revision: 0
# Processed by: cddbd v1.5.2PL0 Copyright (c) Steve Scherf et al.
# Submitted via: ExactAudioCopyFreeDBPlugin 1.0
#
DISCID=d60ad60f
DTITLE=Andres Roots - Mississippi to Loch Lomond
DYEAR=2020
DGENRE=Blues
TTITLE0=In the Dark
TTITLE1=Build Me a Statue
TTITLE2=Bullfrog Medley
TTITLE3=Snake Girl Blues
TTITLE4=Meow Meow
TTITLE5=Legacy Blues
TTITLE6=Right Across the Hill
TTITLE7=Waltzin' Blue
TTITLE8=Birdsong Thing
TTITLE9=4 AM Hot Dog
TTITLE10=Jook Jones
TTITLE11=Spanish Run
TTITLE12=Station Blues Medley
TTITLE13=The Sheik of Hawaii
TTITLE14=Wagon Swing
EXTD=
EXTT0=
EXTT1=
EXTT2=
EXTT3=
EXTT4=
EXTT5=
EXTT6=
EXTT7=
EXTT8=
EXTT9=
EXTT10=
EXTT11=
EXTT12=
EXTT13=
EXTT14=
PLAYORDER=
